<?xml version="1.0" encoding="utf-8" ?>
<svg baseProfile="tiny" height="660.0" version="1.2" viewBox="-330.0,-330.0,660.0,660.0" width="660.0" xmlns="http://www.w3.org/2000/svg" xmlns:ev="http://www.w3.org/2001/xml-events" xmlns:xlink="http://www.w3.org/1999/xlink"><defs /><rect fill="#27374D" height="660.0" width="660.0" x="-330.0" y="-330.0" /><path d="M 277.3482,-38.4447 A 280.0000,280.0000 0 0 0 -277.3482,-38.4447" fill="none" stroke="#C4EF87" stroke-linecap="butt" stroke-width="40" /><path d="M -277.3482,38.4447 A 280.0000,280.0000 0 0 0 277.3482,38.4447" fill="none" stroke="#63C5DA" stroke-linecap="butt" stroke-width="40" /><polyline fill="none" points="-277.3482,-38.4447 -275.4992,-40.1137 -273.6502,-41.752 -271.8012,-43.3583 -269.9522,-44.9315 -268.1032,-46.4703 -266.2542,-47.9735 -264.4053,-49.4401 -262.5563,-50.8688 -260.7073,-52.2586 -258.8583,-53.6084 -257.0093,-54.9172 -255.1603,-56.184 -253.3113,-57.4078 -251.4623,-58.5877 -249.6134,-59.7228 -247.7644,-60.8122 -245.9154,-61.855 -244.0664,-62.8505 -242.2174,-63.798 -240.3684,-64.6966 -238.5194,-65.5457 -236.6704,-66.3447 -234.8214,-67.0929 -232.9725,-67.7898 -231.1235,-68.4349 -229.2745,-69.0275 -227.4255,-69.5674 -225.5765,-70.054 -223.7275,-70.4871 -221.8785,-70.8662 -220.0295,-71.1911 -218.1806,-71.4615 -216.3316,-71.6773 -214.4826,-71.8382 -212.6336,-71.9441 -210.7846,-71.995 -208.9356,-71.9909 -207.0866,-71.9316 -205.2376,-71.8173 -203.3887,-71.6481 -201.5397,-71.4241 -199.6907,-71.1454 -197.8417,-70.8123 -195.9927,-70.425 -194.1437,-69.9838 -192.2947,-69.4891 -190.4457,-68.9412 -188.5968,-68.3406 -186.7478,-67.6877 -184.8988,-66.983 -183.0498,-66.2271 -181.2008,-65.4204 -179.3518,-64.5638 -177.5028,-63.6577 -175.6538,-62.703 -173.8049,-61.7002 -171.9559,-60.6503 -170.1069,-59.554 -168.2579,-58.4121 -166.4089,-57.2255 -164.5599,-55.9951 -162.7109,-54.7219 -160.8619,-53.4068 -159.0129,-52.0509 -157.164,-50.6551 -155.315,-49.2206 -153.466,-47.7484 -151.617,-46.2397 -149.768,-44.6956 -147.919,-43.1174 -146.07,-41.5061 -144.221,-39.8631 -142.3721,-38.1896 -140.5231,-36.4868 -138.6741,-34.7562 -136.8251,-32.9989 -134.9761,-31.2164 -133.1271,-29.4101 -131.2781,-27.5812 -129.4291,-25.7312 -127.5802,-23.8616 -125.7312,-21.9737 -123.8822,-20.0689 -122.0332,-18.1488 -120.1842,-16.2149 -118.3352,-14.2685 -116.4862,-12.3112 -114.6372,-10.3445 -112.7883,-8.3699 -110.9393,-6.3889 -109.0903,-4.403 -107.2413,-2.4137 -105.3923,-0.4226 -103.5433,1.5689 -101.6943,3.5591 -99.8453,5.5467 -97.9964,7.53 -96.1474,9.5075 -94.2984,11.4777 -92.4494,13.4392 -90.6004,15.3904 -88.7514,17.3298 -86.9024,19.2559 -85.0534,21.1674 -83.2045,23.0626 -81.3555,24.9402 -79.5065,26.7987 -77.6575,28.6367 -75.8085,30.4528 -73.9595,32.2455 -72.1105,34.0137 -70.2615,35.7558 -68.4125,37.4705 -66.5636,39.1566 -64.7146,40.8127 -62.8656,42.4376 -61.0166,44.03 -59.1676,45.5887 -57.3186,47.1126 -55.4696,48.6004 -53.6206,50.051 -51.7717,51.4634 -49.9227,52.8364 -48.0737,54.1689 -46.2247,55.46 -44.3757,56.7087 -42.5267,57.9139 -40.6777,59.0749 -38.8287,60.1907 -36.9798,61.2604 -35.1308,62.2833 -33.2818,63.2585 -31.4328,64.1853 -29.5838,65.063 -27.7348,65.8909 -25.8858,66.6684 -24.0368,67.395 -22.1879,68.0699 -20.3389,68.6928 -18.4899,69.2631 -16.6409,69.7804 -14.7919,70.2443 -12.9429,70.6545 -11.0939,71.0107 -9.2449,71.3125 -7.396,71.5597 -5.547,71.7522 -3.698,71.8899 -1.849,71.9725 0.0,72.0 1.849,71.9725 3.698,71.8899 5.547,71.7522 7.396,71.5597 9.2449,71.3125 11.0939,71.0107 12.9429,70.6545 14.7919,70.2443 16.6409,69.7804 18.4899,69.2631 20.3389,68.6928 22.1879,68.0699 24.0368,67.395 25.8858,66.6684 27.7348,65.8909 29.5838,65.063 31.4328,64.1853 33.2818,63.2585 35.1308,62.2833 36.9798,61.2604 38.8287,60.1907 40.6777,59.0749 42.5267,57.9139 44.3757,56.7087 46.2247,55.46 48.0737,54.1689 49.9227,52.8364 51.7717,51.4634 53.6206,50.051 55.4696,48.6004 57.3186,47.1126 59.1676,45.5887 61.0166,44.03 62.8656,42.4376 64.7146,40.8127 66.5636,39.1566 68.4125,37.4705 70.2615,35.7558 72.1105,34.0137 73.9595,32.2455 75.8085,30.4528 77.6575,28.6367 79.5065,26.7987 81.3555,24.9402 83.2045,23.0626 85.0534,21.1674 86.9024,19.2559 88.7514,17.3298 90.6004,15.3904 92.4494,13.4392 94.2984,11.4777 96.1474,9.5075 97.9964,7.53 99.8453,5.5467 101.6943,3.5591 103.5433,1.5689 105.3923,-0.4226 107.2413,-2.4137 109.0903,-4.403 110.9393,-6.3889 112.7883,-8.3699 114.6372,-10.3445 116.4862,-12.3112 118.3352,-14.2685 120.1842,-16.2149 122.0332,-18.1488 123.8822,-20.0689 125.7312,-21.9737 127.5802,-23.8616 129.4291,-25.7312 131.2781,-27.5812 133.1271,-29.4101 134.9761,-31.2164 136.8251,-32.9989 138.6741,-34.7562 140.5231,-36.4868 142.3721,-38.1896 144.221,-39.8631 146.07,-41.5061 147.919,-43.1174 149.768,-44.6956 151.617,-46.2397 153.466,-47.7484 155.315,-49.2206 157.164,-50.6551 159.0129,-52.0509 160.8619,-53.4068 162.7109,-54.7219 164.5599,-55.9951 166.4089,-57.2255 168.2579,-58.4121 170.1069,-59.554 171.9559,-60.6503 173.8049,-61.7002 175.6538,-62.703 177.5028,-63.6577 179.3518,-64.5638 181.2008,-65.4204 183.0498,-66.2271 184.8988,-66.983 186.7478,-67.6877 188.5968,-68.3406 190.4457,-68.9412 192.2947,-69.4891 194.1437,-69.9838 195.9927,-70.425 197.8417,-70.8123 199.6907,-71.1454 201.5397,-71.4241 203.3887,-71.6481 205.2376,-71.8173 207.0866,-71.9316 208.9356,-71.9909 210.7846,-71.995 212.6336,-71.9441 214.4826,-71.8382 216.3316,-71.6773 218.1806,-71.4615 220.0295,-71.1911 221.8785,-70.8662 223.7275,-70.4871 225.5765,-70.054 227.4255,-69.5674 229.2745,-69.0275 231.1235,-68.4349 232.9725,-67.7898 234.8214,-67.0929 236.6704,-66.3447 238.5194,-65.5457 240.3684,-64.6966 242.2174,-63.798 244.0664,-62.8505 245.9154,-61.855 247.7644,-60.8122 249.6134,-59.7228 251.4623,-58.5877 253.3113,-57.4078 255.1603,-56.184 257.0093,-54.9172 258.8583,-53.6084 260.7073,-52.2586 262.5563,-50.8688 264.4053,-49.4401 266.2542,-47.9735 268.1032,-46.4703 269.9522,-44.9315 271.8012,-43.3583 273.6502,-41.752 275.4992,-40.1137 277.3482,-38.4447" stroke="#C4EF87" stroke-linecap="round" stroke-width="40" /><polyline fill="none" points="-277.3482,38.4447 -275.4992,40.1137 -273.6502,41.752 -271.8012,43.3583 -269.9522,44.9315 -268.1032,46.4703 -266.2542,47.9735 -264.4053,49.4401 -262.5563,50.8688 -260.7073,52.2586 -258.8583,53.6084 -257.0093,54.9172 -255.1603,56.184 -253.3113,57.4078 -251.4623,58.5877 -249.6134,59.7228 -247.7644,60.8122 -245.9154,61.855 -244.0664,62.8505 -242.2174,63.798 -240.3684,64.6966 -238.5194,65.5457 -236.6704,66.3447 -234.8214,67.0929 -232.9725,67.7898 -231.1235,68.4349 -229.2745,69.0275 -227.4255,69.5674 -225.5765,70.054 -223.7275,70.4871 -221.8785,70.8662 -220.0295,71.1911 -218.1806,71.4615 -216.3316,71.6773 -214.4826,71.8382 -212.6336,71.9441 -210.7846,71.995 -208.9356,71.9909 -207.0866,71.9316 -205.2376,71.8173 -203.3887,71.6481 -201.5397,71.4241 -199.6907,71.1454 -197.8417,70.8123 -195.9927,70.425 -194.1437,69.9838 -192.2947,69.4891 -190.4457,68.9412 -188.5968,68.3406 -186.7478,67.6877 -184.8988,66.983 -183.0498,66.2271 -181.2008,65.4204 -179.3518,64.5638 -177.5028,63.6577 -175.6538,62.703 -173.8049,61.7002 -171.9559,60.6503 -170.1069,59.554 -168.2579,58.4121 -166.4089,57.2255 -164.5599,55.9951 -162.7109,54.7219 -160.8619,53.4068 -159.0129,52.0509 -157.164,50.6551 -155.315,49.2206 -153.466,47.7484 -151.617,46.2397 -149.768,44.6956 -147.919,43.1174 -146.07,41.5061 -144.221,39.8631 -142.3721,38.1896 -140.5231,36.4868 -138.6741,34.7562 -136.8251,32.9989 -134.9761,31.2164 -133.1271,29.4101 -131.2781,27.5812 -129.4291,25.7312 -127.5802,23.8616 -125.7312,21.9737 -123.8822,20.0689 -122.0332,18.1488 -120.1842,16.2149 -118.3352,14.2685 -116.4862,12.3112 -114.6372,10.3445 -112.7883,8.3699 -110.9393,6.3889 -109.0903,4.403 -107.2413,2.4137 -105.3923,0.4226 -103.5433,-1.5689 -101.6943,-3.5591 -99.8453,-5.5467 -97.9964,-7.53 -96.1474,-9.5075 -94.2984,-11.4777 -92.4494,-13.4392 -90.6004,-15.3904 -88.7514,-17.3298 -86.9024,-19.2559 -85.0534,-21.1674 -83.2045,-23.0626 -81.3555,-24.9402 -79.5065,-26.7987 -77.6575,-28.6367 -75.8085,-30.4528 -73.9595,-32.2455 -72.1105,-34.0137 -70.2615,-35.7558 -68.4125,-37.4705 -66.5636,-39.1566 -64.7146,-40.8127 -62.8656,-42.4376 -61.0166,-44.03 -59.1676,-45.5887 -57.3186,-47.1126 -55.4696,-48.6004 -53.6206,-50.051 -51.7717,-51.4634 -49.9227,-52.8364 -48.0737,-54.1689 -46.2247,-55.46 -44.3757,-56.7087 -42.5267,-57.9139 -40.6777,-59.0749 -38.8287,-60.1907 -36.9798,-61.2604 -35.1308,-62.2833 -33.2818,-63.2585 -31.4328,-64.1853 -29.5838,-65.063 -27.7348,-65.8909 -25.8858,-66.6684 -24.0368,-67.395 -22.1879,-68.0699 -20.3389,-68.6928 -18.4899,-69.2631 -16.6409,-69.7804 -14.7919,-70.2443 -12.9429,-70.6545 -11.0939,-71.0107 -9.2449,-71.3125 -7.396,-71.5597 -5.547,-71.7522 -3.698,-71.8899 -1.849,-71.9725 0.0,-72.0 1.849,-71.9725 3.698,-71.8899 5.547,-71.7522 7.396,-71.5597 9.2449,-71.3125 11.0939,-71.0107 12.9429,-70.6545 14.7919,-70.2443 16.6409,-69.7804 18.4899,-69.2631 20.3389,-68.6928 22.1879,-68.0699 24.0368,-67.395 25.8858,-66.6684 27.7348,-65.8909 29.5838,-65.063 31.4328,-64.1853 33.2818,-63.2585 35.1308,-62.2833 36.9798,-61.2604 38.8287,-60.1907 40.6777,-59.0749 42.5267,-57.9139 44.3757,-56.7087 46.2247,-55.46 48.0737,-54.1689 49.9227,-52.8364 51.7717,-51.4634 53.6206,-50.051 55.4696,-48.6004 57.3186,-47.1126 59.1676,-45.5887 61.0166,-44.03 62.8656,-42.4376 64.7146,-40.8127 66.5636,-39.1566 68.4125,-37.4705 70.2615,-35.7558 72.1105,-34.0137 73.9595,-32.2455 75.8085,-30.4528 77.6575,-28.6367 79.5065,-26.7987 81.3555,-24.9402 83.2045,-23.0626 85.0534,-21.1674 86.9024,-19.2559 88.7514,-17.3298 90.6004,-15.3904 92.4494,-13.4392 94.2984,-11.4777 96.1474,-9.5075 97.9964,-7.53 99.8453,-5.5467 101.6943,-3.5591 103.5433,-1.5689 105.3923,0.4226 107.2413,2.4137 109.0903,4.403 110.9393,6.3889 112.7883,8.3699 114.6372,10.3445 116.4862,12.3112 118.3352,14.2685 120.1842,16.2149 122.0332,18.1488 123.8822,20.0689 125.7312,21.9737 127.5802,23.8616 129.4291,25.7312 131.2781,27.5812 133.1271,29.4101 134.9761,31.2164 136.8251,32.9989 138.6741,34.7562 140.5231,36.4868 142.3721,38.1896 144.221,39.8631 146.07,41.5061 147.919,43.1174 149.768,44.6956 151.617,46.2397 153.466,47.7484 155.315,49.2206 157.164,50.6551 159.0129,52.0509 160.8619,53.4068 162.7109,54.7219 164.5599,55.9951 166.4089,57.2255 168.2579,58.4121 170.1069,59.554 171.9559,60.6503 173.8049,61.7002 175.6538,62.703 177.5028,63.6577 179.3518,64.5638 181.2008,65.4204 183.0498,66.2271 184.8988,66.983 186.7478,67.6877 188.5968,68.3406 190.4457,68.9412 192.2947,69.4891 194.1437,69.9838 195.9927,70.425 197.8417,70.8123 199.6907,71.1454 201.5397,71.4241 203.3887,71.6481 205.2376,71.8173 207.0866,71.9316 208.9356,71.9909 210.7846,71.995 212.6336,71.9441 214.4826,71.8382 216.3316,71.6773 218.1806,71.4615 220.0295,71.1911 221.8785,70.8662 223.7275,70.4871 225.5765,70.054 227.4255,69.5674 229.2745,69.0275 231.1235,68.4349 232.9725,67.7898 234.8214,67.0929 236.6704,66.3447 238.5194,65.5457 240.3684,64.6966 242.2174,63.798 244.0664,62.8505 245.9154,61.855 247.7644,60.8122 249.6134,59.7228 251.4623,58.5877 253.3113,57.4078 255.1603,56.184 257.0093,54.9172 258.8583,53.6084 260.7073,52.2586 262.5563,50.8688 264.4053,49.4401 266.2542,47.9735 268.1032,46.4703 269.9522,44.9315 271.8012,43.3583 273.6502,41.752 275.4992,40.1137 277.3482,38.4447" stroke="#63C5DA" stroke-linecap="round" stroke-width="40" /></svg>